<?xml version="1.0" encoding="utf-8"?>
<!-- Generator: Adobe Illustrator 16.0.0, SVG Export Plug-In . SVG Version: 6.00 Build 0)  -->
<!DOCTYPE svg PUBLIC "-//W3C//DTD SVG 1.1//EN" "http://www.w3.org/Graphics/SVG/1.1/DTD/svg11.dtd" [
	<!ENTITY ns_flows "http://ns.adobe.com/Flows/1.0/">
	<!ENTITY ns_extend "http://ns.adobe.com/Extensibility/1.0/">
	<!ENTITY ns_ai "http://ns.adobe.com/AdobeIllustrator/10.0/">
	<!ENTITY ns_graphs "http://ns.adobe.com/Graphs/1.0/">
]>
<svg version="1.1" xmlns:x="&ns_extend;" xmlns:i="&ns_ai;" xmlns:graph="&ns_graphs;"
	 xmlns="http://www.w3.org/2000/svg" xmlns:xlink="http://www.w3.org/1999/xlink" xmlns:a="http://ns.adobe.com/AdobeSVGViewerExtensions/3.0/"
	 x="0px" y="0px" width="48px" height="48px" viewBox="0 0 48 48" enable-background="new 0 0 48 48" xml:space="preserve">
<g id="底" display="none">
	<g display="inline">
		<defs>
			<rect id="SVGID_31_" width="48" height="48"/>
		</defs>
		<clipPath id="SVGID_2_">
			<use xlink:href="#SVGID_31_"  overflow="visible"/>
		</clipPath>
		<g clip-path="url(#SVGID_2_)">
			<path fill="#FFFFFF" stroke="#040000" stroke-width="0.25" d="M48,0H0v48h48V0z"/>
			<path fill="none" stroke="#DADEE2" stroke-width="0.25" stroke-opacity="0.95" d="M24,43.999c5.523,0,10.523-2.237,14.141-5.857
				c3.621-3.618,5.857-8.618,5.857-14.142c0-5.522-2.236-10.522-5.857-14.143C34.523,6.239,29.523,3.999,24,3.999
				S13.477,6.239,9.856,9.857C6.238,13.478,3.999,18.478,3.999,24c0,5.523,2.239,10.523,5.857,14.142
				C13.477,41.762,18.477,43.999,24,43.999z"/>
			<path fill="none" stroke="#DADEE2" stroke-width="0.25" d="M40,3.999H8v40h32V3.999z"/>
			<path fill="none" stroke="#DADEE2" stroke-width="0.25" d="M43.998,8.001H3.999v32h39.999V8.001z"/>
			<path fill="none" stroke="#DADEE2" stroke-width="0.25" d="M42,6H6v36h36V6z"/>
			<path fill="none" stroke="#DADEE2" stroke-width="0.25" d="M36,12H12v24h24V12z"/>
			<path fill="none" stroke="#DADEE2" stroke-width="0.25" stroke-linecap="round" stroke-linejoin="round" d="M24,33
				c4.971,0,9-4.029,9-9s-4.029-9-9-9s-9,4.029-9,9S19.029,33,24,33z"/>
			<path fill="none" stroke="#DADEE2" stroke-width="0.25" d="M24,3.999L46,42H2L24,3.999z"/>
		</g>
	</g>
</g>
<g id="圖層_2">
	<g id="圖層_2_4_">
		<g>
			<g>
				<path fill="#040000" d="M18.596,26.059c0-0.5-0.404-0.903-0.902-0.903h-3.155c-0.497,0-0.903,0.403-0.903,0.903v3.154
					c0,0.5,0.406,0.906,0.903,0.906h3.155c0.498,0,0.902-0.406,0.902-0.906V26.059L18.596,26.059z"/>
				<path fill="#040000" d="M26.48,26.059c0-0.5-0.403-0.903-0.901-0.903h-3.156c-0.5,0-0.903,0.403-0.903,0.903v3.154
					c0,0.5,0.403,0.906,0.903,0.906h3.156c0.498,0,0.901-0.406,0.901-0.906V26.059z"/>
				<path fill="#040000" d="M34.366,26.059c0-0.5-0.406-0.903-0.903-0.903h-3.154c-0.5,0-0.903,0.403-0.903,0.903v3.154
					c0,0.5,0.403,0.906,0.903,0.906h3.154c0.497,0,0.903-0.406,0.903-0.906V26.059z"/>
				<path fill="#040000" d="M18.596,33.945c0-0.5-0.404-0.906-0.902-0.906h-3.155c-0.497,0-0.903,0.406-0.903,0.906v3.152
					c0,0.502,0.406,0.903,0.903,0.903h3.155c0.498,0,0.902-0.401,0.902-0.903V33.945L18.596,33.945z"/>
				<path fill="#040000" d="M26.48,33.945c0-0.5-0.403-0.906-0.901-0.906h-3.156c-0.5,0-0.903,0.406-0.903,0.906v3.152
					c0,0.502,0.403,0.903,0.903,0.903h3.156c0.498,0,0.901-0.401,0.901-0.903V33.945z"/>
				<path fill="#040000" d="M34.366,33.945c0-0.5-0.406-0.906-0.903-0.906h-3.154c-0.5,0-0.903,0.406-0.903,0.906v3.152
					c0,0.502,0.403,0.903,0.903,0.903h3.154c0.497,0,0.903-0.401,0.903-0.903V33.945L34.366,33.945z"/>
				<path fill="#040000" d="M40.008,8.52v4.818c0,2.176-1.768,3.934-3.943,3.934h-2.488c-2.178,0-3.967-1.758-3.967-3.934V8.502
					H18.393v4.836c0,2.176-1.789,3.934-3.967,3.934h-2.488c-2.178,0-3.944-1.758-3.944-3.934V8.52
					c-1.903,0.057-3.468,1.631-3.468,3.566v28.236c0,1.975,1.601,3.594,3.569,3.594h31.812c1.968,0,3.568-1.623,3.568-3.594V12.086
					C43.475,10.15,41.911,8.576,40.008,8.52z M38.854,38.566c0,0.854-0.691,1.543-1.545,1.543H10.624
					c-0.854,0-1.543-0.689-1.543-1.543V23.98c0-0.852,0.688-1.545,1.543-1.545h26.685c0.854,0,1.545,0.693,1.545,1.545V38.566
					L38.854,38.566z"/>
				<path fill="#040000" d="M11.93,14.686h2.461c0.745,0,1.354-0.604,1.354-1.35V5.438c0-0.748-0.607-1.354-1.354-1.354H11.93
					c-0.748,0-1.354,0.605-1.354,1.354v7.898C10.575,14.082,11.182,14.686,11.93,14.686z"/>
				<path fill="#040000" d="M33.544,14.686h2.461c0.746,0,1.353-0.604,1.353-1.35V5.438c0-0.748-0.605-1.354-1.353-1.354h-2.461
					c-0.747,0-1.354,0.605-1.354,1.354v7.898C32.189,14.082,32.797,14.686,33.544,14.686z"/>
			</g>
		</g>
	</g>
</g>
</svg>
